<svg xmlns="http://www.w3.org/2000/svg" xmlns:xlink="http://www.w3.org/1999/xlink" width="500" zoomAndPan="magnify" viewBox="0 0 375 374.999991" height="500" preserveAspectRatio="xMidYMid meet" version="1.0"><defs><g/></defs><g fill="#5271ff" fill-opacity="1"><g transform="translate(19.798686, 197.795199)"><g><path d="M 23.5 0 L 15.328125 -14.828125 L 13.03125 -14.828125 L 13.03125 0 L 3.46875 0 L 3.46875 -39.28125 L 19.53125 -39.28125 C 22.625 -39.28125 25.257812 -38.738281 27.4375 -37.65625 C 29.625 -36.570312 31.257812 -35.085938 32.34375 -33.203125 C 33.425781 -31.316406 33.96875 -29.21875 33.96875 -26.90625 C 33.96875 -24.300781 33.226562 -21.972656 31.75 -19.921875 C 30.28125 -17.867188 28.109375 -16.414062 25.234375 -15.5625 L 34.296875 0 Z M 13.03125 -21.59375 L 18.96875 -21.59375 C 20.71875 -21.59375 22.03125 -22.019531 22.90625 -22.875 C 23.789062 -23.738281 24.234375 -24.953125 24.234375 -26.515625 C 24.234375 -28.015625 23.789062 -29.191406 22.90625 -30.046875 C 22.03125 -30.898438 20.71875 -31.328125 18.96875 -31.328125 L 13.03125 -31.328125 Z M 13.03125 -21.59375 "/></g></g></g><g fill="#5271ff" fill-opacity="1"><g transform="translate(56.281483, 197.795199)"><g><path d="M 1.5625 -15.671875 C 1.5625 -18.878906 2.164062 -21.691406 3.375 -24.109375 C 4.59375 -26.535156 6.242188 -28.398438 8.328125 -29.703125 C 10.421875 -31.015625 12.753906 -31.671875 15.328125 -31.671875 C 17.523438 -31.671875 19.453125 -31.222656 21.109375 -30.328125 C 22.773438 -29.429688 24.054688 -28.253906 24.953125 -26.796875 L 24.953125 -31.21875 L 34.515625 -31.21875 L 34.515625 0 L 24.953125 0 L 24.953125 -4.421875 C 24.023438 -2.960938 22.726562 -1.785156 21.0625 -0.890625 C 19.40625 0.00390625 17.476562 0.453125 15.28125 0.453125 C 12.738281 0.453125 10.421875 -0.207031 8.328125 -1.53125 C 6.242188 -2.863281 4.59375 -4.75 3.375 -7.1875 C 2.164062 -9.632812 1.5625 -12.460938 1.5625 -15.671875 Z M 24.953125 -15.609375 C 24.953125 -17.992188 24.289062 -19.875 22.96875 -21.25 C 21.644531 -22.632812 20.03125 -23.328125 18.125 -23.328125 C 16.226562 -23.328125 14.613281 -22.644531 13.28125 -21.28125 C 11.957031 -19.925781 11.296875 -18.054688 11.296875 -15.671875 C 11.296875 -13.273438 11.957031 -11.378906 13.28125 -9.984375 C 14.613281 -8.585938 16.226562 -7.890625 18.125 -7.890625 C 20.03125 -7.890625 21.644531 -8.578125 22.96875 -9.953125 C 24.289062 -11.335938 24.953125 -13.222656 24.953125 -15.609375 Z M 24.953125 -15.609375 "/></g></g></g><g fill="#5271ff" fill-opacity="1"><g transform="translate(94.275073, 197.795199)"><g><path d="M 1.5625 -15.609375 C 1.5625 -18.859375 2.222656 -21.691406 3.546875 -24.109375 C 4.878906 -26.535156 6.726562 -28.398438 9.09375 -29.703125 C 11.457031 -31.015625 14.171875 -31.671875 17.234375 -31.671875 C 21.148438 -31.671875 24.421875 -30.644531 27.046875 -28.59375 C 29.679688 -26.539062 31.410156 -23.648438 32.234375 -19.921875 L 22.046875 -19.921875 C 21.191406 -22.304688 19.53125 -23.5 17.0625 -23.5 C 15.3125 -23.5 13.910156 -22.816406 12.859375 -21.453125 C 11.816406 -20.097656 11.296875 -18.148438 11.296875 -15.609375 C 11.296875 -13.078125 11.816406 -11.128906 12.859375 -9.765625 C 13.910156 -8.398438 15.3125 -7.71875 17.0625 -7.71875 C 19.53125 -7.71875 21.191406 -8.910156 22.046875 -11.296875 L 32.234375 -11.296875 C 31.410156 -7.640625 29.671875 -4.765625 27.015625 -2.671875 C 24.367188 -0.585938 21.109375 0.453125 17.234375 0.453125 C 14.171875 0.453125 11.457031 -0.195312 9.09375 -1.5 C 6.726562 -2.8125 4.878906 -4.679688 3.546875 -7.109375 C 2.222656 -9.535156 1.5625 -12.367188 1.5625 -15.609375 Z M 25.40625 -37.765625 L 16.734375 -33.34375 L 8.0625 -37.765625 L 8.0625 -44.375 L 16.734375 -39.5 L 25.40625 -44.375 Z M 25.40625 -37.765625 "/></g></g></g><g fill="#5271ff" fill-opacity="1"><g transform="translate(128.127976, 197.795199)"><g><path d="M 34.296875 -31.21875 L 34.296875 0 L 24.734375 0 L 24.734375 -4.25 C 23.765625 -2.875 22.445312 -1.765625 20.78125 -0.921875 C 19.125 -0.0859375 17.289062 0.328125 15.28125 0.328125 C 12.882812 0.328125 10.769531 -0.203125 8.9375 -1.265625 C 7.113281 -2.328125 5.695312 -3.863281 4.6875 -5.875 C 3.6875 -7.882812 3.1875 -10.253906 3.1875 -12.984375 L 3.1875 -31.21875 L 12.703125 -31.21875 L 12.703125 -14.265625 C 12.703125 -12.179688 13.242188 -10.5625 14.328125 -9.40625 C 15.410156 -8.25 16.863281 -7.671875 18.6875 -7.671875 C 20.550781 -7.671875 22.023438 -8.25 23.109375 -9.40625 C 24.191406 -10.5625 24.734375 -12.179688 24.734375 -14.265625 L 24.734375 -31.21875 Z M 34.296875 -31.21875 "/></g></g></g><g fill="#5271ff" fill-opacity="1"><g transform="translate(165.841794, 197.795199)"><g><path d="M 22.5 -31.5625 C 26.144531 -31.5625 29.054688 -30.375 31.234375 -28 C 33.421875 -25.632812 34.515625 -22.378906 34.515625 -18.234375 L 34.515625 0 L 25.015625 0 L 25.015625 -16.953125 C 25.015625 -19.046875 24.472656 -20.671875 23.390625 -21.828125 C 22.304688 -22.984375 20.851562 -23.5625 19.03125 -23.5625 C 17.195312 -23.5625 15.738281 -22.984375 14.65625 -21.828125 C 13.570312 -20.671875 13.03125 -19.046875 13.03125 -16.953125 L 13.03125 0 L 3.46875 0 L 3.46875 -31.21875 L 13.03125 -31.21875 L 13.03125 -27.078125 C 14 -28.460938 15.304688 -29.554688 16.953125 -30.359375 C 18.597656 -31.160156 20.445312 -31.5625 22.5 -31.5625 Z M 22.5 -31.5625 "/></g></g></g><g fill="#5271ff" fill-opacity="1"><g transform="translate(203.556689, 197.795199)"><g><path d="M 17.6875 0.5 C 14.8125 0.5 12.207031 -0.148438 9.875 -1.453125 C 7.539062 -2.753906 5.710938 -4.609375 4.390625 -7.015625 C 3.066406 -9.421875 2.40625 -12.210938 2.40625 -15.390625 C 2.40625 -18.523438 3.082031 -21.296875 4.4375 -23.703125 C 5.800781 -26.109375 7.660156 -27.953125 10.015625 -29.234375 C 12.367188 -30.523438 15 -31.171875 17.90625 -31.171875 C 20.8125 -31.171875 23.4375 -30.523438 25.78125 -29.234375 C 28.132812 -27.953125 29.992188 -26.113281 31.359375 -23.71875 C 32.722656 -21.332031 33.40625 -18.554688 33.40625 -15.390625 C 33.40625 -12.210938 32.703125 -9.421875 31.296875 -7.015625 C 29.898438 -4.609375 28.007812 -2.753906 25.625 -1.453125 C 23.238281 -0.148438 20.59375 0.5 17.6875 0.5 Z M 17.6875 -3.96875 C 19.507812 -3.96875 21.222656 -4.394531 22.828125 -5.25 C 24.429688 -6.113281 25.726562 -7.398438 26.71875 -9.109375 C 27.707031 -10.828125 28.203125 -12.921875 28.203125 -15.390625 C 28.203125 -17.847656 27.71875 -19.9375 26.75 -21.65625 C 25.78125 -23.375 24.507812 -24.648438 22.9375 -25.484375 C 21.375 -26.328125 19.675781 -26.75 17.84375 -26.75 C 15.976562 -26.75 14.269531 -26.328125 12.71875 -25.484375 C 11.175781 -24.648438 9.9375 -23.375 9 -21.65625 C 8.070312 -19.9375 7.609375 -17.847656 7.609375 -15.390625 C 7.609375 -12.890625 8.0625 -10.78125 8.96875 -9.0625 C 9.882812 -7.34375 11.109375 -6.0625 12.640625 -5.21875 C 14.171875 -4.382812 15.851562 -3.96875 17.6875 -3.96875 Z M 17.6875 -3.96875 "/></g></g></g><g fill="#5271ff" fill-opacity="1"><g transform="translate(239.368025, 197.795199)"><g><path d="M 41.1875 -31.21875 C 43.570312 -31.21875 45.695312 -30.722656 47.5625 -29.734375 C 49.425781 -28.742188 50.898438 -27.257812 51.984375 -25.28125 C 53.066406 -23.3125 53.609375 -20.910156 53.609375 -18.078125 L 53.609375 0 L 48.5625 0 L 48.5625 -17.34375 C 48.5625 -20.40625 47.804688 -22.742188 46.296875 -24.359375 C 44.785156 -25.984375 42.742188 -26.796875 40.171875 -26.796875 C 37.523438 -26.796875 35.414062 -25.945312 33.84375 -24.25 C 32.28125 -22.550781 31.5 -20.097656 31.5 -16.890625 L 31.5 0 L 26.46875 0 L 26.46875 -17.34375 C 26.46875 -20.40625 25.710938 -22.742188 24.203125 -24.359375 C 22.691406 -25.984375 20.648438 -26.796875 18.078125 -26.796875 C 15.421875 -26.796875 13.3125 -25.945312 11.75 -24.25 C 10.1875 -22.550781 9.40625 -20.097656 9.40625 -16.890625 L 9.40625 0 L 4.3125 0 L 4.3125 -30.65625 L 9.40625 -30.65625 L 9.40625 -26.234375 C 10.40625 -27.835938 11.753906 -29.066406 13.453125 -29.921875 C 15.148438 -30.785156 17.023438 -31.21875 19.078125 -31.21875 C 21.648438 -31.21875 23.925781 -30.640625 25.90625 -29.484375 C 27.882812 -28.328125 29.359375 -26.628906 30.328125 -24.390625 C 31.179688 -26.554688 32.597656 -28.234375 34.578125 -29.421875 C 36.554688 -30.617188 38.757812 -31.21875 41.1875 -31.21875 Z M 41.1875 -31.21875 "/></g></g></g><g fill="#5271ff" fill-opacity="1"><g transform="translate(297.001898, 197.795199)"><g><path d="M 2.40625 -15.4375 C 2.40625 -18.570312 3.035156 -21.320312 4.296875 -23.6875 C 5.566406 -26.0625 7.3125 -27.898438 9.53125 -29.203125 C 11.757812 -30.515625 14.234375 -31.171875 16.953125 -31.171875 C 19.640625 -31.171875 21.96875 -30.59375 23.9375 -29.4375 C 25.914062 -28.28125 27.394531 -26.820312 28.375 -25.0625 L 28.375 -30.65625 L 33.515625 -30.65625 L 33.515625 0 L 28.375 0 L 28.375 -5.703125 C 27.363281 -3.910156 25.859375 -2.425781 23.859375 -1.25 C 21.867188 -0.0820312 19.546875 0.5 16.890625 0.5 C 14.171875 0.5 11.707031 -0.171875 9.5 -1.515625 C 7.300781 -2.859375 5.566406 -4.738281 4.296875 -7.15625 C 3.035156 -9.582031 2.40625 -12.34375 2.40625 -15.4375 Z M 28.375 -15.390625 C 28.375 -17.703125 27.90625 -19.710938 26.96875 -21.421875 C 26.039062 -23.140625 24.78125 -24.457031 23.1875 -25.375 C 21.601562 -26.289062 19.859375 -26.75 17.953125 -26.75 C 16.054688 -26.75 14.320312 -26.300781 12.75 -25.40625 C 11.1875 -24.507812 9.9375 -23.203125 9 -21.484375 C 8.070312 -19.765625 7.609375 -17.75 7.609375 -15.4375 C 7.609375 -13.09375 8.070312 -11.050781 9 -9.3125 C 9.9375 -7.582031 11.1875 -6.257812 12.75 -5.34375 C 14.320312 -4.425781 16.054688 -3.96875 17.953125 -3.96875 C 19.859375 -3.96875 21.601562 -4.425781 23.1875 -5.34375 C 24.78125 -6.257812 26.039062 -7.582031 26.96875 -9.3125 C 27.90625 -11.050781 28.375 -13.078125 28.375 -15.390625 Z M 28.375 -15.390625 "/></g></g></g><g fill="#5271ff" fill-opacity="1"><g transform="translate(334.827622, 197.795199)"><g><path d="M 10.515625 -26.46875 L 10.515625 -8.390625 C 10.515625 -6.898438 10.832031 -5.847656 11.46875 -5.234375 C 12.101562 -4.617188 13.203125 -4.3125 14.765625 -4.3125 L 18.515625 -4.3125 L 18.515625 0 L 13.9375 0 C 11.101562 0 8.972656 -0.648438 7.546875 -1.953125 C 6.128906 -3.265625 5.421875 -5.410156 5.421875 -8.390625 L 5.421875 -26.46875 L 1.453125 -26.46875 L 1.453125 -30.65625 L 5.421875 -30.65625 L 5.421875 -38.390625 L 10.515625 -38.390625 L 10.515625 -30.65625 L 18.515625 -30.65625 L 18.515625 -26.46875 Z M 10.515625 -26.46875 "/></g></g></g><g fill="#5271ff" fill-opacity="1"><g transform="translate(37.500002, 223.898131)"><g><path d="M 8.09375 -11.28125 C 9.375 -11.28125 10.398438 -10.851562 11.171875 -10 C 11.953125 -9.15625 12.34375 -7.992188 12.34375 -6.515625 L 12.34375 0 L 8.9375 0 L 8.9375 -6.0625 C 8.9375 -6.8125 8.742188 -7.390625 8.359375 -7.796875 C 7.972656 -8.210938 7.453125 -8.421875 6.796875 -8.421875 C 6.140625 -8.421875 5.617188 -8.210938 5.234375 -7.796875 C 4.847656 -7.390625 4.65625 -6.8125 4.65625 -6.0625 L 4.65625 0 L 1.234375 0 L 1.234375 -14.796875 L 4.65625 -14.796875 L 4.65625 -9.65625 C 5.007812 -10.15625 5.484375 -10.550781 6.078125 -10.84375 C 6.679688 -11.132812 7.351562 -11.28125 8.09375 -11.28125 Z M 8.09375 -11.28125 "/></g></g></g><g fill="#5271ff" fill-opacity="1"><g transform="translate(50.974687, 223.898131)"><g><path d="M 2.953125 -12.3125 C 2.359375 -12.3125 1.867188 -12.488281 1.484375 -12.84375 C 1.109375 -13.195312 0.921875 -13.632812 0.921875 -14.15625 C 0.921875 -14.6875 1.109375 -15.128906 1.484375 -15.484375 C 1.867188 -15.835938 2.359375 -16.015625 2.953125 -16.015625 C 3.546875 -16.015625 4.03125 -15.835938 4.40625 -15.484375 C 4.789062 -15.128906 4.984375 -14.6875 4.984375 -14.15625 C 4.984375 -13.632812 4.789062 -13.195312 4.40625 -12.84375 C 4.03125 -12.488281 3.546875 -12.3125 2.953125 -12.3125 Z M 4.65625 -11.15625 L 4.65625 0 L 1.234375 0 L 1.234375 -11.15625 Z M 4.65625 -11.15625 "/></g></g></g><g fill="#5271ff" fill-opacity="1"><g transform="translate(56.872365, 223.898131)"><g><path d="M 7.453125 -2.90625 L 7.453125 0 L 5.71875 0 C 4.476562 0 3.507812 -0.300781 2.8125 -0.90625 C 2.125 -1.507812 1.78125 -2.5 1.78125 -3.875 L 1.78125 -8.3125 L 0.421875 -8.3125 L 0.421875 -11.15625 L 1.78125 -11.15625 L 1.78125 -13.875 L 5.203125 -13.875 L 5.203125 -11.15625 L 7.4375 -11.15625 L 7.4375 -8.3125 L 5.203125 -8.3125 L 5.203125 -3.84375 C 5.203125 -3.507812 5.28125 -3.269531 5.4375 -3.125 C 5.601562 -2.976562 5.867188 -2.90625 6.234375 -2.90625 Z M 7.453125 -2.90625 "/></g></g></g><g fill="#5271ff" fill-opacity="1"><g transform="translate(64.989167, 223.898131)"><g><path d="M 4.65625 -9.296875 C 5.0625 -9.910156 5.5625 -10.394531 6.15625 -10.75 C 6.757812 -11.101562 7.425781 -11.28125 8.15625 -11.28125 L 8.15625 -7.65625 L 7.21875 -7.65625 C 6.363281 -7.65625 5.722656 -7.472656 5.296875 -7.109375 C 4.867188 -6.742188 4.65625 -6.101562 4.65625 -5.1875 L 4.65625 0 L 1.234375 0 L 1.234375 -11.15625 L 4.65625 -11.15625 Z M 4.65625 -9.296875 "/></g></g></g><g fill="#5271ff" fill-opacity="1"><g transform="translate(73.545788, 223.898131)"><g><path d="M 6.3125 0.15625 C 5.226562 0.15625 4.25 -0.0703125 3.375 -0.53125 C 2.5 -1 1.8125 -1.664062 1.3125 -2.53125 C 0.8125 -3.40625 0.5625 -4.421875 0.5625 -5.578125 C 0.5625 -6.722656 0.8125 -7.734375 1.3125 -8.609375 C 1.820312 -9.484375 2.515625 -10.148438 3.390625 -10.609375 C 4.273438 -11.078125 5.265625 -11.3125 6.359375 -11.3125 C 7.453125 -11.3125 8.4375 -11.078125 9.3125 -10.609375 C 10.195312 -10.148438 10.890625 -9.484375 11.390625 -8.609375 C 11.898438 -7.734375 12.15625 -6.722656 12.15625 -5.578125 C 12.15625 -4.429688 11.898438 -3.421875 11.390625 -2.546875 C 10.878906 -1.671875 10.175781 -1 9.28125 -0.53125 C 8.394531 -0.0703125 7.40625 0.15625 6.3125 0.15625 Z M 6.3125 -2.796875 C 6.96875 -2.796875 7.523438 -3.035156 7.984375 -3.515625 C 8.453125 -3.992188 8.6875 -4.679688 8.6875 -5.578125 C 8.6875 -6.472656 8.460938 -7.160156 8.015625 -7.640625 C 7.566406 -8.117188 7.015625 -8.359375 6.359375 -8.359375 C 5.691406 -8.359375 5.140625 -8.117188 4.703125 -7.640625 C 4.265625 -7.171875 4.046875 -6.484375 4.046875 -5.578125 C 4.046875 -4.679688 4.257812 -3.992188 4.6875 -3.515625 C 5.125 -3.035156 5.664062 -2.796875 6.3125 -2.796875 Z M 6.3125 -2.796875 "/></g></g></g><g fill="#5271ff" fill-opacity="1"><g transform="translate(86.280761, 223.898131)"><g><path d="M 2.84375 0.15625 C 2.238281 0.15625 1.742188 -0.0195312 1.359375 -0.375 C 0.984375 -0.726562 0.796875 -1.164062 0.796875 -1.6875 C 0.796875 -2.21875 0.984375 -2.660156 1.359375 -3.015625 C 1.742188 -3.378906 2.238281 -3.5625 2.84375 -3.5625 C 3.425781 -3.5625 3.90625 -3.378906 4.28125 -3.015625 C 4.664062 -2.660156 4.859375 -2.21875 4.859375 -1.6875 C 4.859375 -1.164062 4.664062 -0.726562 4.28125 -0.375 C 3.90625 -0.0195312 3.425781 0.15625 2.84375 0.15625 Z M 2.84375 0.15625 "/></g></g></g><g fill="#5271ff" fill-opacity="1"><g transform="translate(91.918532, 223.898131)"><g/></g></g><g fill="#5271ff" fill-opacity="1"><g transform="translate(96.156863, 223.898131)"><g><path d="M 11.765625 -5.765625 C 11.765625 -5.441406 11.742188 -5.109375 11.703125 -4.765625 L 3.953125 -4.765625 C 4.015625 -4.066406 4.238281 -3.535156 4.625 -3.171875 C 5.019531 -2.804688 5.503906 -2.625 6.078125 -2.625 C 6.929688 -2.625 7.523438 -2.984375 7.859375 -3.703125 L 11.5 -3.703125 C 11.3125 -2.960938 10.972656 -2.300781 10.484375 -1.71875 C 10.003906 -1.132812 9.394531 -0.675781 8.65625 -0.34375 C 7.925781 -0.0078125 7.109375 0.15625 6.203125 0.15625 C 5.109375 0.15625 4.132812 -0.0703125 3.28125 -0.53125 C 2.425781 -1 1.757812 -1.664062 1.28125 -2.53125 C 0.800781 -3.40625 0.5625 -4.421875 0.5625 -5.578125 C 0.5625 -6.734375 0.796875 -7.742188 1.265625 -8.609375 C 1.742188 -9.484375 2.410156 -10.148438 3.265625 -10.609375 C 4.117188 -11.078125 5.097656 -11.3125 6.203125 -11.3125 C 7.273438 -11.3125 8.234375 -11.082031 9.078125 -10.625 C 9.921875 -10.175781 10.578125 -9.53125 11.046875 -8.6875 C 11.523438 -7.851562 11.765625 -6.878906 11.765625 -5.765625 Z M 8.265625 -6.65625 C 8.265625 -7.25 8.0625 -7.71875 7.65625 -8.0625 C 7.257812 -8.40625 6.757812 -8.578125 6.15625 -8.578125 C 5.582031 -8.578125 5.097656 -8.410156 4.703125 -8.078125 C 4.316406 -7.742188 4.078125 -7.269531 3.984375 -6.65625 Z M 8.265625 -6.65625 "/></g></g></g><g fill="#5271ff" fill-opacity="1"><g transform="translate(108.472009, 223.898131)"><g><path d="M 8.046875 -11.28125 C 9.347656 -11.28125 10.390625 -10.851562 11.171875 -10 C 11.953125 -9.15625 12.34375 -7.992188 12.34375 -6.515625 L 12.34375 0 L 8.9375 0 L 8.9375 -6.0625 C 8.9375 -6.8125 8.742188 -7.390625 8.359375 -7.796875 C 7.972656 -8.210938 7.453125 -8.421875 6.796875 -8.421875 C 6.140625 -8.421875 5.617188 -8.210938 5.234375 -7.796875 C 4.847656 -7.390625 4.65625 -6.8125 4.65625 -6.0625 L 4.65625 0 L 1.234375 0 L 1.234375 -11.15625 L 4.65625 -11.15625 L 4.65625 -9.6875 C 5.007812 -10.175781 5.476562 -10.5625 6.0625 -10.84375 C 6.644531 -11.132812 7.304688 -11.28125 8.046875 -11.28125 Z M 8.046875 -11.28125 "/></g></g></g><g fill="#5271ff" fill-opacity="1"><g transform="translate(121.946694, 223.898131)"><g><path d="M 6.3125 0.15625 C 5.226562 0.15625 4.25 -0.0703125 3.375 -0.53125 C 2.5 -1 1.8125 -1.664062 1.3125 -2.53125 C 0.8125 -3.40625 0.5625 -4.421875 0.5625 -5.578125 C 0.5625 -6.722656 0.8125 -7.734375 1.3125 -8.609375 C 1.820312 -9.484375 2.515625 -10.148438 3.390625 -10.609375 C 4.273438 -11.078125 5.265625 -11.3125 6.359375 -11.3125 C 7.453125 -11.3125 8.4375 -11.078125 9.3125 -10.609375 C 10.195312 -10.148438 10.890625 -9.484375 11.390625 -8.609375 C 11.898438 -7.734375 12.15625 -6.722656 12.15625 -5.578125 C 12.15625 -4.429688 11.898438 -3.421875 11.390625 -2.546875 C 10.878906 -1.671875 10.175781 -1 9.28125 -0.53125 C 8.394531 -0.0703125 7.40625 0.15625 6.3125 0.15625 Z M 6.3125 -2.796875 C 6.96875 -2.796875 7.523438 -3.035156 7.984375 -3.515625 C 8.453125 -3.992188 8.6875 -4.679688 8.6875 -5.578125 C 8.6875 -6.472656 8.460938 -7.160156 8.015625 -7.640625 C 7.566406 -8.117188 7.015625 -8.359375 6.359375 -8.359375 C 5.691406 -8.359375 5.140625 -8.117188 4.703125 -7.640625 C 4.265625 -7.171875 4.046875 -6.484375 4.046875 -5.578125 C 4.046875 -4.679688 4.257812 -3.992188 4.6875 -3.515625 C 5.125 -3.035156 5.664062 -2.796875 6.3125 -2.796875 Z M 6.3125 -2.796875 "/></g></g></g><g fill="#5271ff" fill-opacity="1"><g transform="translate(134.681667, 223.898131)"><g><path d="M 5.78125 0.15625 C 4.800781 0.15625 3.929688 -0.0078125 3.171875 -0.34375 C 2.421875 -0.675781 1.820312 -1.128906 1.375 -1.703125 C 0.9375 -2.285156 0.691406 -2.9375 0.640625 -3.65625 L 4.015625 -3.65625 C 4.054688 -3.269531 4.238281 -2.957031 4.5625 -2.71875 C 4.882812 -2.476562 5.273438 -2.359375 5.734375 -2.359375 C 6.160156 -2.359375 6.488281 -2.441406 6.71875 -2.609375 C 6.957031 -2.773438 7.078125 -2.992188 7.078125 -3.265625 C 7.078125 -3.578125 6.910156 -3.8125 6.578125 -3.96875 C 6.242188 -4.125 5.703125 -4.296875 4.953125 -4.484375 C 4.160156 -4.671875 3.492188 -4.863281 2.953125 -5.0625 C 2.421875 -5.269531 1.960938 -5.597656 1.578125 -6.046875 C 1.191406 -6.492188 1 -7.097656 1 -7.859375 C 1 -8.492188 1.175781 -9.078125 1.53125 -9.609375 C 1.882812 -10.140625 2.40625 -10.554688 3.09375 -10.859375 C 3.78125 -11.160156 4.597656 -11.3125 5.546875 -11.3125 C 6.941406 -11.3125 8.039062 -10.960938 8.84375 -10.265625 C 9.65625 -9.578125 10.117188 -8.660156 10.234375 -7.515625 L 7.078125 -7.515625 C 7.023438 -7.898438 6.851562 -8.207031 6.5625 -8.4375 C 6.28125 -8.664062 5.90625 -8.78125 5.4375 -8.78125 C 5.039062 -8.78125 4.734375 -8.703125 4.515625 -8.546875 C 4.304688 -8.390625 4.203125 -8.179688 4.203125 -7.921875 C 4.203125 -7.597656 4.367188 -7.351562 4.703125 -7.1875 C 5.046875 -7.03125 5.578125 -6.875 6.296875 -6.71875 C 7.128906 -6.507812 7.800781 -6.300781 8.3125 -6.09375 C 8.832031 -5.882812 9.289062 -5.550781 9.6875 -5.09375 C 10.082031 -4.632812 10.285156 -4.015625 10.296875 -3.234375 C 10.296875 -2.585938 10.113281 -2.003906 9.75 -1.484375 C 9.382812 -0.972656 8.859375 -0.570312 8.171875 -0.28125 C 7.484375 0.0078125 6.6875 0.15625 5.78125 0.15625 Z M 5.78125 0.15625 "/></g></g></g><g fill="#5271ff" fill-opacity="1"><g transform="translate(145.837264, 223.898131)"><g><path d="M 7.453125 -2.90625 L 7.453125 0 L 5.71875 0 C 4.476562 0 3.507812 -0.300781 2.8125 -0.90625 C 2.125 -1.507812 1.78125 -2.5 1.78125 -3.875 L 1.78125 -8.3125 L 0.421875 -8.3125 L 0.421875 -11.15625 L 1.78125 -11.15625 L 1.78125 -13.875 L 5.203125 -13.875 L 5.203125 -11.15625 L 7.4375 -11.15625 L 7.4375 -8.3125 L 5.203125 -8.3125 L 5.203125 -3.84375 C 5.203125 -3.507812 5.28125 -3.269531 5.4375 -3.125 C 5.601562 -2.976562 5.867188 -2.90625 6.234375 -2.90625 Z M 7.453125 -2.90625 "/></g></g></g><g fill="#5271ff" fill-opacity="1"><g transform="translate(153.954066, 223.898131)"><g><path d="M 0.5625 -5.59375 C 0.5625 -6.738281 0.773438 -7.742188 1.203125 -8.609375 C 1.640625 -9.484375 2.226562 -10.148438 2.96875 -10.609375 C 3.71875 -11.078125 4.554688 -11.3125 5.484375 -11.3125 C 6.265625 -11.3125 6.953125 -11.148438 7.546875 -10.828125 C 8.140625 -10.515625 8.597656 -10.097656 8.921875 -9.578125 L 8.921875 -11.15625 L 12.34375 -11.15625 L 12.34375 0 L 8.921875 0 L 8.921875 -1.578125 C 8.585938 -1.054688 8.125 -0.632812 7.53125 -0.3125 C 6.9375 0 6.242188 0.15625 5.453125 0.15625 C 4.546875 0.15625 3.71875 -0.078125 2.96875 -0.546875 C 2.226562 -1.023438 1.640625 -1.695312 1.203125 -2.5625 C 0.773438 -3.4375 0.5625 -4.445312 0.5625 -5.59375 Z M 8.921875 -5.578125 C 8.921875 -6.429688 8.679688 -7.101562 8.203125 -7.59375 C 7.734375 -8.09375 7.160156 -8.34375 6.484375 -8.34375 C 5.796875 -8.34375 5.21875 -8.097656 4.75 -7.609375 C 4.28125 -7.117188 4.046875 -6.445312 4.046875 -5.59375 C 4.046875 -4.738281 4.28125 -4.0625 4.75 -3.5625 C 5.21875 -3.0625 5.796875 -2.8125 6.484375 -2.8125 C 7.160156 -2.8125 7.734375 -3.054688 8.203125 -3.546875 C 8.679688 -4.046875 8.921875 -4.722656 8.921875 -5.578125 Z M 8.921875 -5.578125 "/></g></g></g><g fill="#5271ff" fill-opacity="1"><g transform="translate(167.528715, 223.898131)"><g><path d="M 6.265625 -3.203125 L 8.6875 -11.15625 L 12.3125 -11.15625 L 8.359375 0 L 4.140625 0 L 0.1875 -11.15625 L 3.84375 -11.15625 Z M 6.265625 -3.203125 "/></g></g></g><g fill="#5271ff" fill-opacity="1"><g transform="translate(180.043778, 223.898131)"><g><path d="M 8.046875 -11.28125 C 9.347656 -11.28125 10.390625 -10.851562 11.171875 -10 C 11.953125 -9.15625 12.34375 -7.992188 12.34375 -6.515625 L 12.34375 0 L 8.9375 0 L 8.9375 -6.0625 C 8.9375 -6.8125 8.742188 -7.390625 8.359375 -7.796875 C 7.972656 -8.210938 7.453125 -8.421875 6.796875 -8.421875 C 6.140625 -8.421875 5.617188 -8.210938 5.234375 -7.796875 C 4.847656 -7.390625 4.65625 -6.8125 4.65625 -6.0625 L 4.65625 0 L 1.234375 0 L 1.234375 -11.15625 L 4.65625 -11.15625 L 4.65625 -9.6875 C 5.007812 -10.175781 5.476562 -10.5625 6.0625 -10.84375 C 6.644531 -11.132812 7.304688 -11.28125 8.046875 -11.28125 Z M 8.046875 -11.28125 "/></g></g></g><g fill="#5271ff" fill-opacity="1"><g transform="translate(193.518463, 223.898131)"><g><path d="M 6.3125 0.15625 C 5.226562 0.15625 4.25 -0.0703125 3.375 -0.53125 C 2.5 -1 1.8125 -1.664062 1.3125 -2.53125 C 0.8125 -3.40625 0.5625 -4.421875 0.5625 -5.578125 C 0.5625 -6.722656 0.8125 -7.734375 1.3125 -8.609375 C 1.820312 -9.484375 2.515625 -10.148438 3.390625 -10.609375 C 4.273438 -11.078125 5.265625 -11.3125 6.359375 -11.3125 C 7.453125 -11.3125 8.4375 -11.078125 9.3125 -10.609375 C 10.195312 -10.148438 10.890625 -9.484375 11.390625 -8.609375 C 11.898438 -7.734375 12.15625 -6.722656 12.15625 -5.578125 C 12.15625 -4.429688 11.898438 -3.421875 11.390625 -2.546875 C 10.878906 -1.671875 10.175781 -1 9.28125 -0.53125 C 8.394531 -0.0703125 7.40625 0.15625 6.3125 0.15625 Z M 6.3125 -2.796875 C 6.96875 -2.796875 7.523438 -3.035156 7.984375 -3.515625 C 8.453125 -3.992188 8.6875 -4.679688 8.6875 -5.578125 C 8.6875 -6.472656 8.460938 -7.160156 8.015625 -7.640625 C 7.566406 -8.117188 7.015625 -8.359375 6.359375 -8.359375 C 5.691406 -8.359375 5.140625 -8.117188 4.703125 -7.640625 C 4.265625 -7.171875 4.046875 -6.484375 4.046875 -5.578125 C 4.046875 -4.679688 4.257812 -3.992188 4.6875 -3.515625 C 5.125 -3.035156 5.664062 -2.796875 6.3125 -2.796875 Z M 6.3125 -2.796875 "/></g></g></g><g fill="#5271ff" fill-opacity="1"><g transform="translate(206.253436, 223.898131)"><g><path d="M 2.84375 0.15625 C 2.238281 0.15625 1.742188 -0.0195312 1.359375 -0.375 C 0.984375 -0.726562 0.796875 -1.164062 0.796875 -1.6875 C 0.796875 -2.21875 0.984375 -2.660156 1.359375 -3.015625 C 1.742188 -3.378906 2.238281 -3.5625 2.84375 -3.5625 C 3.425781 -3.5625 3.90625 -3.378906 4.28125 -3.015625 C 4.664062 -2.660156 4.859375 -2.21875 4.859375 -1.6875 C 4.859375 -1.164062 4.664062 -0.726562 4.28125 -0.375 C 3.90625 -0.0195312 3.425781 0.15625 2.84375 0.15625 Z M 2.84375 0.15625 "/></g></g></g><g fill="#5271ff" fill-opacity="1"><g transform="translate(211.891207, 223.898131)"><g/></g></g><g fill="#5271ff" fill-opacity="1"><g transform="translate(216.129538, 223.898131)"><g><path d="M 4.65625 -9.578125 C 4.976562 -10.097656 5.4375 -10.515625 6.03125 -10.828125 C 6.632812 -11.148438 7.320312 -11.3125 8.09375 -11.3125 C 9.019531 -11.3125 9.851562 -11.078125 10.59375 -10.609375 C 11.34375 -10.148438 11.929688 -9.484375 12.359375 -8.609375 C 12.796875 -7.742188 13.015625 -6.738281 13.015625 -5.59375 C 13.015625 -4.445312 12.796875 -3.4375 12.359375 -2.5625 C 11.929688 -1.695312 11.34375 -1.023438 10.59375 -0.546875 C 9.851562 -0.078125 9.019531 0.15625 8.09375 0.15625 C 7.3125 0.15625 6.625 0 6.03125 -0.3125 C 5.445312 -0.625 4.988281 -1.039062 4.65625 -1.5625 L 4.65625 0 L 1.234375 0 L 1.234375 -14.796875 L 4.65625 -14.796875 Z M 9.546875 -5.59375 C 9.546875 -6.445312 9.304688 -7.117188 8.828125 -7.609375 C 8.359375 -8.097656 7.773438 -8.34375 7.078125 -8.34375 C 6.398438 -8.34375 5.820312 -8.09375 5.34375 -7.59375 C 4.875 -7.101562 4.640625 -6.429688 4.640625 -5.578125 C 4.640625 -4.722656 4.875 -4.046875 5.34375 -3.546875 C 5.820312 -3.054688 6.398438 -2.8125 7.078125 -2.8125 C 7.753906 -2.8125 8.332031 -3.0625 8.8125 -3.5625 C 9.300781 -4.0625 9.546875 -4.738281 9.546875 -5.59375 Z M 9.546875 -5.59375 "/></g></g></g><g fill="#5271ff" fill-opacity="1"><g transform="translate(229.704198, 223.898131)"><g><path d="M 4.65625 -9.296875 C 5.0625 -9.910156 5.5625 -10.394531 6.15625 -10.75 C 6.757812 -11.101562 7.425781 -11.28125 8.15625 -11.28125 L 8.15625 -7.65625 L 7.21875 -7.65625 C 6.363281 -7.65625 5.722656 -7.472656 5.296875 -7.109375 C 4.867188 -6.742188 4.65625 -6.101562 4.65625 -5.1875 L 4.65625 0 L 1.234375 0 L 1.234375 -11.15625 L 4.65625 -11.15625 Z M 4.65625 -9.296875 "/></g></g></g><g fill="#5271ff" fill-opacity="1"><g transform="translate(238.260808, 223.898131)"><g><path d="M 11.765625 -5.765625 C 11.765625 -5.441406 11.742188 -5.109375 11.703125 -4.765625 L 3.953125 -4.765625 C 4.015625 -4.066406 4.238281 -3.535156 4.625 -3.171875 C 5.019531 -2.804688 5.503906 -2.625 6.078125 -2.625 C 6.929688 -2.625 7.523438 -2.984375 7.859375 -3.703125 L 11.5 -3.703125 C 11.3125 -2.960938 10.972656 -2.300781 10.484375 -1.71875 C 10.003906 -1.132812 9.394531 -0.675781 8.65625 -0.34375 C 7.925781 -0.0078125 7.109375 0.15625 6.203125 0.15625 C 5.109375 0.15625 4.132812 -0.0703125 3.28125 -0.53125 C 2.425781 -1 1.757812 -1.664062 1.28125 -2.53125 C 0.800781 -3.40625 0.5625 -4.421875 0.5625 -5.578125 C 0.5625 -6.734375 0.796875 -7.742188 1.265625 -8.609375 C 1.742188 -9.484375 2.410156 -10.148438 3.265625 -10.609375 C 4.117188 -11.078125 5.097656 -11.3125 6.203125 -11.3125 C 7.273438 -11.3125 8.234375 -11.082031 9.078125 -10.625 C 9.921875 -10.175781 10.578125 -9.53125 11.046875 -8.6875 C 11.523438 -7.851562 11.765625 -6.878906 11.765625 -5.765625 Z M 8.265625 -6.65625 C 8.265625 -7.25 8.0625 -7.71875 7.65625 -8.0625 C 7.257812 -8.40625 6.757812 -8.578125 6.15625 -8.578125 C 5.582031 -8.578125 5.097656 -8.410156 4.703125 -8.078125 C 4.316406 -7.742188 4.078125 -7.269531 3.984375 -6.65625 Z M 8.265625 -6.65625 "/></g></g></g><g fill="#5271ff" fill-opacity="1"><g transform="translate(250.575954, 223.898131)"><g><path d="M 4.4375 -2.8125 L 9.28125 -2.8125 L 9.28125 0 L 0.625 0 L 0.625 -2.71875 L 5.265625 -8.34375 L 0.65625 -8.34375 L 0.65625 -11.15625 L 9.1875 -11.15625 L 9.1875 -8.4375 Z M 4.4375 -2.8125 "/></g></g></g><g fill="#5271ff" fill-opacity="1"><g transform="translate(260.492053, 223.898131)"><g><path d="M 4.65625 -9.578125 C 4.988281 -10.097656 5.445312 -10.515625 6.03125 -10.828125 C 6.625 -11.148438 7.3125 -11.3125 8.09375 -11.3125 C 9.019531 -11.3125 9.851562 -11.078125 10.59375 -10.609375 C 11.34375 -10.148438 11.929688 -9.484375 12.359375 -8.609375 C 12.796875 -7.742188 13.015625 -6.738281 13.015625 -5.59375 C 13.015625 -4.445312 12.796875 -3.4375 12.359375 -2.5625 C 11.929688 -1.695312 11.34375 -1.023438 10.59375 -0.546875 C 9.851562 -0.078125 9.019531 0.15625 8.09375 0.15625 C 7.320312 0.15625 6.640625 0 6.046875 -0.3125 C 5.453125 -0.632812 4.988281 -1.050781 4.65625 -1.5625 L 4.65625 5.3125 L 1.234375 5.3125 L 1.234375 -11.15625 L 4.65625 -11.15625 Z M 9.546875 -5.59375 C 9.546875 -6.445312 9.304688 -7.117188 8.828125 -7.609375 C 8.359375 -8.097656 7.773438 -8.34375 7.078125 -8.34375 C 6.398438 -8.34375 5.820312 -8.09375 5.34375 -7.59375 C 4.875 -7.101562 4.640625 -6.429688 4.640625 -5.578125 C 4.640625 -4.722656 4.875 -4.046875 5.34375 -3.546875 C 5.820312 -3.054688 6.398438 -2.8125 7.078125 -2.8125 C 7.753906 -2.8125 8.332031 -3.0625 8.8125 -3.5625 C 9.300781 -4.0625 9.546875 -4.738281 9.546875 -5.59375 Z M 9.546875 -5.59375 "/></g></g></g><g fill="#5271ff" fill-opacity="1"><g transform="translate(274.066713, 223.898131)"><g><path d="M 4.65625 -14.796875 L 4.65625 0 L 1.234375 0 L 1.234375 -14.796875 Z M 4.65625 -14.796875 "/></g></g></g><g fill="#5271ff" fill-opacity="1"><g transform="translate(279.964403, 223.898131)"><g><path d="M 0.5625 -5.59375 C 0.5625 -6.738281 0.773438 -7.742188 1.203125 -8.609375 C 1.640625 -9.484375 2.226562 -10.148438 2.96875 -10.609375 C 3.71875 -11.078125 4.554688 -11.3125 5.484375 -11.3125 C 6.265625 -11.3125 6.953125 -11.148438 7.546875 -10.828125 C 8.140625 -10.515625 8.597656 -10.097656 8.921875 -9.578125 L 8.921875 -11.15625 L 12.34375 -11.15625 L 12.34375 0 L 8.921875 0 L 8.921875 -1.578125 C 8.585938 -1.054688 8.125 -0.632812 7.53125 -0.3125 C 6.9375 0 6.242188 0.15625 5.453125 0.15625 C 4.546875 0.15625 3.71875 -0.078125 2.96875 -0.546875 C 2.226562 -1.023438 1.640625 -1.695312 1.203125 -2.5625 C 0.773438 -3.4375 0.5625 -4.445312 0.5625 -5.59375 Z M 8.921875 -5.578125 C 8.921875 -6.429688 8.679688 -7.101562 8.203125 -7.59375 C 7.734375 -8.09375 7.160156 -8.34375 6.484375 -8.34375 C 5.796875 -8.34375 5.21875 -8.097656 4.75 -7.609375 C 4.28125 -7.117188 4.046875 -6.445312 4.046875 -5.59375 C 4.046875 -4.738281 4.28125 -4.0625 4.75 -3.5625 C 5.21875 -3.0625 5.796875 -2.8125 6.484375 -2.8125 C 7.160156 -2.8125 7.734375 -3.054688 8.203125 -3.546875 C 8.679688 -4.046875 8.921875 -4.722656 8.921875 -5.578125 Z M 8.921875 -5.578125 "/></g></g></g><g fill="#5271ff" fill-opacity="1"><g transform="translate(293.539063, 223.898131)"><g><path d="M 0.5625 -5.578125 C 0.5625 -6.734375 0.796875 -7.742188 1.265625 -8.609375 C 1.742188 -9.484375 2.40625 -10.148438 3.25 -10.609375 C 4.09375 -11.078125 5.0625 -11.3125 6.15625 -11.3125 C 7.5625 -11.3125 8.734375 -10.945312 9.671875 -10.21875 C 10.609375 -9.488281 11.222656 -8.457031 11.515625 -7.125 L 7.875 -7.125 C 7.570312 -7.976562 6.976562 -8.40625 6.09375 -8.40625 C 5.46875 -8.40625 4.96875 -8.160156 4.59375 -7.671875 C 4.226562 -7.179688 4.046875 -6.484375 4.046875 -5.578125 C 4.046875 -4.671875 4.226562 -3.972656 4.59375 -3.484375 C 4.96875 -3.003906 5.46875 -2.765625 6.09375 -2.765625 C 6.976562 -2.765625 7.570312 -3.191406 7.875 -4.046875 L 11.515625 -4.046875 C 11.222656 -2.734375 10.601562 -1.703125 9.65625 -0.953125 C 8.707031 -0.210938 7.539062 0.15625 6.15625 0.15625 C 5.0625 0.15625 4.09375 -0.0703125 3.25 -0.53125 C 2.40625 -1 1.742188 -1.664062 1.265625 -2.53125 C 0.796875 -3.40625 0.5625 -4.421875 0.5625 -5.578125 Z M 9.09375 -13.5 L 5.984375 -11.921875 L 2.890625 -13.5 L 2.890625 -15.859375 L 5.984375 -14.125 L 9.09375 -15.859375 Z M 9.09375 -13.5 "/></g></g></g><g fill="#5271ff" fill-opacity="1"><g transform="translate(305.634277, 223.898131)"><g><path d="M 8.046875 -11.28125 C 9.347656 -11.28125 10.390625 -10.851562 11.171875 -10 C 11.953125 -9.15625 12.34375 -7.992188 12.34375 -6.515625 L 12.34375 0 L 8.9375 0 L 8.9375 -6.0625 C 8.9375 -6.8125 8.742188 -7.390625 8.359375 -7.796875 C 7.972656 -8.210938 7.453125 -8.421875 6.796875 -8.421875 C 6.140625 -8.421875 5.617188 -8.210938 5.234375 -7.796875 C 4.847656 -7.390625 4.65625 -6.8125 4.65625 -6.0625 L 4.65625 0 L 1.234375 0 L 1.234375 -11.15625 L 4.65625 -11.15625 L 4.65625 -9.6875 C 5.007812 -10.175781 5.476562 -10.5625 6.0625 -10.84375 C 6.644531 -11.132812 7.304688 -11.28125 8.046875 -11.28125 Z M 8.046875 -11.28125 "/></g></g></g><g fill="#5271ff" fill-opacity="1"><g transform="translate(319.108962, 223.898131)"><g><path d="M 6.3125 0.15625 C 5.226562 0.15625 4.25 -0.0703125 3.375 -0.53125 C 2.5 -1 1.8125 -1.664062 1.3125 -2.53125 C 0.8125 -3.40625 0.5625 -4.421875 0.5625 -5.578125 C 0.5625 -6.722656 0.8125 -7.734375 1.3125 -8.609375 C 1.820312 -9.484375 2.515625 -10.148438 3.390625 -10.609375 C 4.273438 -11.078125 5.265625 -11.3125 6.359375 -11.3125 C 7.453125 -11.3125 8.4375 -11.078125 9.3125 -10.609375 C 10.195312 -10.148438 10.890625 -9.484375 11.390625 -8.609375 C 11.898438 -7.734375 12.15625 -6.722656 12.15625 -5.578125 C 12.15625 -4.429688 11.898438 -3.421875 11.390625 -2.546875 C 10.878906 -1.671875 10.175781 -1 9.28125 -0.53125 C 8.394531 -0.0703125 7.40625 0.15625 6.3125 0.15625 Z M 6.3125 -2.796875 C 6.96875 -2.796875 7.523438 -3.035156 7.984375 -3.515625 C 8.453125 -3.992188 8.6875 -4.679688 8.6875 -5.578125 C 8.6875 -6.472656 8.460938 -7.160156 8.015625 -7.640625 C 7.566406 -8.117188 7.015625 -8.359375 6.359375 -8.359375 C 5.691406 -8.359375 5.140625 -8.117188 4.703125 -7.640625 C 4.265625 -7.171875 4.046875 -6.484375 4.046875 -5.578125 C 4.046875 -4.679688 4.257812 -3.992188 4.6875 -3.515625 C 5.125 -3.035156 5.664062 -2.796875 6.3125 -2.796875 Z M 6.3125 -2.796875 "/></g></g></g><g fill="#5271ff" fill-opacity="1"><g transform="translate(331.843946, 223.898131)"><g><path d="M 2.84375 0.15625 C 2.238281 0.15625 1.742188 -0.0195312 1.359375 -0.375 C 0.984375 -0.726562 0.796875 -1.164062 0.796875 -1.6875 C 0.796875 -2.21875 0.984375 -2.660156 1.359375 -3.015625 C 1.742188 -3.378906 2.238281 -3.5625 2.84375 -3.5625 C 3.425781 -3.5625 3.90625 -3.378906 4.28125 -3.015625 C 4.664062 -2.660156 4.859375 -2.21875 4.859375 -1.6875 C 4.859375 -1.164062 4.664062 -0.726562 4.28125 -0.375 C 3.90625 -0.0195312 3.425781 0.15625 2.84375 0.15625 Z M 2.84375 0.15625 "/></g></g></g></svg>